<svg width="100%" height="100%" viewBox="0 0 1023 945" version="1.1" xmlns="http://www.w3.org/2000/svg" xmlns:xlink="http://www.w3.org/1999/xlink" xml:space="preserve" xmlns:serif="http://www.serif.com/" fill="#ffffff" style="fill-rule:evenodd;clip-rule:evenodd;stroke-linejoin:round;stroke-miterlimit:2;">
    <g transform="matrix(1,0,0,1,-0.42038,-0.324239)">
        <g transform="matrix(2.027481,0,0,2.027481,-501.219829,-535.588229)">
            <path d="M314.668,554.11C311.49,542.198 308.41,530.672 305.32,519.109C302.678,519.457 302.694,521.443 302.12,522.825C298.889,530.608 293.425,535.059 284.743,535.66C273.304,536.453 262.167,535.05 251.186,532.02C249.478,531.549 247.201,530.983 247.437,528.68C247.702,526.096 250.157,526.7 251.853,526.682C258.02,526.617 264.157,526.227 270.309,525.779C278.318,525.195 283.641,521.438 286.917,514.197C289.533,508.412 291.437,502.384 293.64,496.456C294.622,493.813 295.732,491.188 297.089,488.723C298.874,485.479 301.606,483.28 305.504,483.371C309.642,483.467 312.223,486.051 313.897,489.543C316.959,495.928 317.575,502.991 319.267,509.755C320.71,515.523 321.652,521.439 324.588,527.467C327.796,523.464 327.98,519.115 328.613,515.057C333.041,486.653 337.332,458.228 341.638,429.806C342.042,427.137 342.821,424.613 344.044,422.225C345.712,418.968 348.339,417.133 352.064,417.326C355.662,417.513 358.401,419.176 359.965,422.545C362.111,427.168 362.199,432.238 363.066,437.124C365.794,452.508 368.635,467.882 370.873,483.341C372.754,496.331 373.862,509.433 375.292,522.488C375.741,526.583 376.387,530.629 377.931,535.165C380.633,529.169 379.894,523.244 380.46,517.631C383.465,487.857 385.964,458.032 388.78,428.238C390.625,408.708 392.698,389.2 394.708,369.686C394.877,368.042 395.249,366.403 395.684,364.805C397.125,359.508 401.538,355.746 405.829,356.067C410.466,356.414 414.462,360.335 415.147,365.763C417.952,388.019 420.624,410.291 423.36,432.556C425.752,452.025 428.22,471.486 430.551,490.963C432.882,510.439 435.043,529.936 437.383,549.411C437.792,552.812 437.832,556.347 439.802,560.474C442.485,553.848 442.576,547.546 443.611,541.5C449.051,509.727 454.183,477.9 459.708,446.141C461.667,434.876 471.337,429.681 480.808,434.171C485.992,436.628 488.157,441.373 489.374,446.448C491.585,455.659 493.431,464.959 495.318,474.244C498.204,488.442 505.485,494.876 519.834,494.598C537.272,494.26 542.543,501.564 540.027,519.869C538.723,529.356 533.574,533.469 523.952,533.308C516.296,533.181 508.651,532.43 500.996,532.317C488.478,532.134 480.175,537.9 476.176,549.971C471.195,565.002 468.936,580.712 465.326,596.088C462.516,608.054 461.014,620.336 456.782,631.96C454.353,638.632 450.464,643.798 442.702,644.268C435.671,644.695 430.082,640.617 428.22,633.027C423.228,612.683 418.676,592.24 415.661,571.481C413.273,555.039 410.62,538.637 408.107,522.214C407.135,515.861 407.145,509.316 404.491,502.616C401.532,506.535 402.069,510.695 401.593,514.41C397.706,544.75 393.167,575.01 390.185,605.465C389.863,608.755 389.055,612.034 388.133,615.219C386.649,620.34 383.021,623.299 379.015,623.046C374.696,622.774 371.057,619.416 369.978,614.297C368.812,608.769 367.916,603.185 366.903,597.626C361.38,567.336 357.351,536.849 354.505,506.19C354.033,501.106 354.16,495.87 352.235,490.015C349.917,496.804 349.638,503.202 348.363,509.372C345.097,525.167 342.422,541.085 338.42,556.726C337.506,560.297 336.314,563.76 334.231,566.823C330.416,572.435 324.743,572.596 320.737,567.09C317.976,563.295 316.181,558.968 314.668,554.11Z" fill="#ffffff" style="fill-rule:nonzero;"/>
        </g>
        <g transform="matrix(2.027481,0,0,2.027481,-501.219829,-535.588229)">
            <path d="M631.294,449C631.275,491.83 630.762,534.167 631.388,576.487C631.913,611.903 602.529,637.924 574.048,643.239C554.512,646.884 536.086,644.305 520.34,631.266C502.248,616.284 498.306,591.373 510.073,569.598C526.55,539.106 564.654,524.661 597.266,536.51C599.261,537.235 601.161,538.436 604.563,538.086L604.563,264.8C607.675,263.549 608.779,265.044 609.968,266.1C634.244,287.659 662.631,302.161 692.503,314.066C706.337,319.579 719.879,325.523 730.804,336.057C743.542,348.338 749.664,363.74 751.146,381.008C752.115,392.305 751.382,403.64 749.214,414.822C748.905,416.418 748.672,418.082 747.231,419.609C744.448,417.077 743.046,413.662 741.385,410.582C729.068,387.742 709.988,374.472 684.644,369.819C667.757,366.719 651.064,362.894 635.159,356.204C634.284,355.836 633.349,355.249 631.293,356.39C631.293,386.714 631.293,417.607 631.294,449Z" fill="#ffffff" style="fill-rule:nonzero;"/>
        </g>
        <g transform="matrix(2.027481,0,0,2.027481,-501.219829,-535.588229)">
            <path d="M450.661,367.559C481.24,353.503 513.047,347.936 546.168,349.844C558.447,350.551 570.602,352.387 582.566,355.457C586.584,356.488 588.558,358.139 588.253,362.577C587.9,367.712 588.012,372.898 588.241,378.048C588.438,382.46 586.978,383.59 582.66,382.302C566.15,377.378 549.284,375.15 531.999,375.263C499.653,375.472 470.084,384.533 442.903,401.856C441.14,402.979 439.625,404.737 436.471,404.72C435.576,398.648 434.938,392.441 433.691,386.358C432.292,379.524 434.228,374.983 440.997,372.489C444.249,371.291 447.221,369.332 450.661,367.559Z" fill="#ffffff" style="fill-rule:nonzero;"/>
        </g>
        <g transform="matrix(2.441527,0,0,9.968421,-322.281623,-8562.873684)">
            <g transform="matrix(0.830415,0,0,0.20339,-73.289451,805.271508)">
                <path d="M688.361,423.678C710.117,451.044 723.836,481.781 727.937,516.014C735.501,579.166 718.463,634.561 671.533,678.865C641.196,707.505 604.644,724.656 563.202,728.905C489.164,736.496 429.23,709.861 383.647,651.041C381.244,647.94 378.902,644.682 377.466,640.079C385.946,639.887 393.352,637.518 399.526,631.506C404.666,637.827 409.185,644.008 414.331,649.613C449.488,687.903 492.505,707.711 545.122,705.957C618.379,703.515 681.648,652.999 698.907,581.719C711.734,528.744 700.085,480.857 667.041,437.857C662.05,431.362 656.653,425.27 650.554,419.802C649.307,418.684 648.149,417.531 647.844,415.741C647.486,413.638 647.923,390.23 648.667,387.008C663.981,397.184 676.638,409.644 688.361,423.678Z" fill="#ffffff" style="fill-rule:nonzero;"/>
            </g>
        </g>
    </g>
</svg>
